<?xml version="1.0" encoding="UTF-8"?>
<svg id="Layer_2" data-name="Layer 2" xmlns="http://www.w3.org/2000/svg" viewBox="0 0 15829.8 4857.63">
  <g id="Layer_1-2" data-name="Layer 1">
    <g>
      <path d="M2710.12,3616.81c-204.76,432.7-478.67,454.65-706.64,26.17-72.99-129.32-166.49-328.86-232.9-464.38-77.44-157.85-157.13-321.67-288.16-444.87-106.55-105.22-240.32-168.21-382.88-196.63,70.13-121.67,136.96-245.32,200.08-370.91,295.8-629.79,512.74-1314.87,509.52-2015.86-.07-3.37-2.76-6.19-6.17-6.34-3.56-.15-6.56,2.61-6.72,6.17-8.03,173.39-28.44,345.73-60.43,515.84-94.97,509.92-272.65,1003.87-499.49,1469.01-67.16,131.94-138.96,262.02-214.44,390.09-91.78-10.1-185.66-6.7-277.42,8.79-41.6-713.89-111.23-1426.57-200.1-2134.27-.44-3.29-3.34-5.78-6.71-5.62-3.56,.18-6.3,3.2-6.13,6.76,14.19,279.9,44.1,685.24,64.49,968.1,28.61,380.97,55.27,778.21,80.11,1178.85-73.3,17.36-144.46,41.9-210.78,73.65-143.12,74.1-249.05,198.61-333.03,332.45-108.96,178.41-206.84,559.13-52.02,731.2,121.1,102.81,281.8-129.35,359.66-204.17,94.89-111.82,184.93-227.37,271.22-345.59,22.13,385.32,42.57,768.11,61.34,1136.96,.19,3.35,2.95,6.06,6.35,6.1,3.57,.05,6.49-2.8,6.53-6.36,5.74-405.78-.05-812.14-15.63-1218.4,103.47-146.63,200.57-297.64,291.87-452.23,333.09,50.71,513.88,307.18,654.49,604.57,127.26,224.79,341.58,812.63,649.11,782.56,187.8-21.03,289.96-210.79,356.65-366.42,1.26-3.15-.1-6.87-3.2-8.33-3.23-1.51-7.06-.13-8.57,3.09Zm-2329.42-188.26c-67.6,68.71-138.54,162.78-222.58,200.63-12.88,2.94-15.48,1.15-23.86-4.8-16.64-14.79-35.03-60.59-43.19-94.88-16.53-75.8-10.63-161.14,3.7-242.96,26.15-167.26,103.13-318.91,214.74-444.22,95.53-115.8,228.23-184.71,371.27-219.99,8.01,130.53,15.82,261.31,23.44,391.96-102.09,142.78-209.58,281.5-323.51,414.27Zm368.01-820.55c77.07-13.2,155.84-17.49,232.46-14.71-68.91,113.91-141.12,225.87-216.76,335.44-4.63-106.92-9.77-213.84-15.7-320.73Z"/>
      <path d="M15822.53,3400.31c-897.05,116.47-1806.12,168.95-2704.66,46.96-128.81-15.49-543.12-70.28-674.1-83.93-135.87-14.05-275.68-1.88-410.39,11.6-180.16,19.27-359.52,35.08-538.94,27.69-179.18-8.14-356.96-37.97-529.93-85.68-86.36-24.88-178.93-52.28-270.69-54.74-273.82-13.69-541.07,96.72-807.49,110.97-98.69,4.08-197.14-6.12-286.14-46.11-26.99-11.41-63.54-32.28-89.62-44.85-126.31-67.86-281.2-74.68-416.97-37.69-134.74,32.87-252.42,105.25-380.06,147.49l-29.65,7.29-27.99,2.52s-30.83-2.03-30.83-2.03c-94.87-8.8-162.77-76.05-222.94-155.87-88.36-103.04-155.31-261.57-300.27-295.15-179.11-22.96-296.64,197.46-371.79,378.57-3.36-213.14-12.27-778.16-12.27-778.16-4.49-301.57-12.87-631.63-37.37-931.17-.13-6.06-5.13-10.87-11.26-10.64-6.02,.15-10.32,5.52-10.15,11.29,0,0-.12,0-.12,0-2.71,124.26-3.87,256.3-4.53,387.68-17.46,336.94-73.24,671.21-189.79,988.67-39.72,105.79-83.95,215.71-147.92,307.72-32.21,44.34-72.39,79.84-120.99,97.16-94.03,35.26-223.27,14.81-263.74-88.58-42.64-97.36,25.82-222.23,123.15-258.96,50.81-20.85,109.81-13.84,163.13,6.43,3,1.44,6.82,.49,8.51-2.55,1.85-3.25,.59-7.38-2.8-9.02-86.14-54.82-181.77-91.47-278.67-121.35-110.49-33.29-223.78-55.46-338.23-67.83,80.34-350.17,79.97-716.79,35.58-1088.38-67.13-603.32-239.56-1188.74-420.69-1765.12-1.04-3.3-4.52-5.22-7.88-4.28-3.43,.95-5.43,4.51-4.48,7.94,108,388.14,212.08,777.59,288.68,1172.07,103.24,548.93,167.55,1132.02,38.27,1671.51-165.79-12.13-333.31-4.48-497.67,19.46-406.97,51.96-784.16,267.14-1051.25,576.78-32.75-5.44-63.89-13.3-92.55-24.04-60.88-23.34-116.87-58.97-158.71-108.29-24.39-28.9-48.11-58.21-83.29-75.66-112.59-54.22-224.95,46.37-303.84,106.55-47.35,34.98-95.3,85.16-155.14,61.36-55.88-17.68-90.66-76.64-115.41-127.86-3.51-9.75-22.96-22.08-33.76-18.97-11.67,.06-26.38,14.8-30.65,19.95-87.7,94.73-183.23,167.21-284.68,42.11-24.72-26.64-50.06-63.56-85.94-89.39-33.28-21.81-74.16-23.83-113.03-16.68-80.33,17.99-128.04,79.3-180.18,132.33-40.24,39.73-78.37,102.22-135.76,92.13-113.13-42.84-91.2-228.72-83.1-332.7,.56-39.87-46.15-38.35-62.2-15.09-4.77,6.75-8.7,14.43-12.31,22.45-95.41-75.1-212.03-9.28-266.01,85.06-53.18,93.73-96.49,215.45-44.85,320.13,39.21,68.72,131.58,53.77,181,11.29,69.06-53.28,113.29-129.69,140.05-209.89,2.59,17.14,5.86,34.22,10.75,51.16,45.69,147.89,186.1,183.64,286.57,59.08,64.69-63.33,129.27-164.55,219.7-150.54,6.47,.68,9.52,1.43,14.7,3.39,31.35,19.19,50.5,50.79,80.1,82.58,124.42,146.14,255.54,90.4,362.09-21.57,40.76,70.87,107.6,132.89,194.93,128.89,62.32-3.69,106.73-49.24,150.67-82.26,53.08-43.1,105.25-88.21,162.28-107.53,51.4-19.27,99.11,3.63,130.94,43.87,0,0,18.08,20.17,18.08,20.17,69.13,77.39,159.73,119.1,257.03,136.96-22.7,27.94-44.82,56.33-65.7,85.64-153.2,206.38-253.11,448.74-315.97,696.81-33.85,159.08-90.62,413.38,28.35,549.88,75.23,61.32,175.83,35.34,255.2,15.07,579.49-189.75,1157.68-780.7,1467.04-1295.51,131.2-205.81,219.34-421.48,274.23-643.99,182.95,12.71,363.19,50.61,530.87,122.27-27.6-3.12-55.9-1.59-83.43,6.83-122.89,35.38-207.47,183.28-161.43,305.99,77.44,205.58,378.99,175.41,481.21,8.3,70.91-101.98,113.51-212.66,152.01-324.9,64.96-197.46,109.67-400.73,136.04-606.49,.9,357.02,2.4,719.14,18.41,1074.62-.31,33.03,48,41.57,58.84,10.1,54.18-138.17,181.18-498.8,360.1-480.5,79.26,15.76,130.52,99.51,180.14,161.9,112.78,156.28,236.32,340.65,459.81,278.66,271.22-99.55,492.83-262.28,782.54-102.72,29.81,16.24,65.28,33.72,97.11,44.45,89.82,33.05,186.09,39.94,278.69,35.55,366.47-27.33,699.78-200.2,1062.85-65.65,176.33,47.28,358.03,76.44,540.76,83.4,273.95,12.66,542.3-43.36,813.71-51.61,191.94-.8,606.05,65.08,807.64,84.32,901.36,115.85,1813.88,56.63,2710.12-66.38,3.51-.49,6.01-3.71,5.55-7.23-.46-3.53-3.7-6.01-7.22-5.56Zm-12987.48,101.31c-58.5,.77-48.62-97.59-41.95-139.73,18.55-121.27,115.42-302.03,257.99-231.18-12.81,35.43-18.86,77.27-29.89,108.87-28.07,104.05-78.11,228.49-186.15,262.04Zm3426.15-1.06c-307.43,497.16-760.43,951.71-1289.84,1207.14-73.92,30.64-284.23,124.41-332.27,34.02-108.54-258,87.06-768.66,225.99-1004.03,50.91-85.12,109.31-165.66,173.65-241.03,87.73,4.48,177.49-6.93,259.45-27.25,132.86-37.55,272.27-82.06,374.81-178.14,2.23-2.55,2.11-6.43-.34-8.83-2.67-2.72-7.26-2.3-9.59,.63-140.2,108.4-383.3,180.98-588.89,173.34,253.69-279.62,595.26-477.73,973.06-532.58,156.31-25.55,318.46-38.17,479.65-32.6-54.73,211.77-140.04,416.48-265.68,609.33Z"/>
      <path d="M2976.12,2495.11s2087.06-195.52,2087.06-195.52c8.49-.57,6.72-13.61-1.05-12.84l-2090.94,148.44c-40.37,3.67-34.18,63.05,4.93,59.92Z"/>
    </g>
  </g>
</svg>